<?xml version="1.0" encoding="UTF-8"?>
<!DOCTYPE svg PUBLIC "-//W3C//DTD SVG 1.1//EN" "http://www.w3.org/Graphics/SVG/1.1/DTD/svg11.dtd">
<!-- Creator: CorelDRAW 2019 (64-Bit) -->
<svg xmlns="http://www.w3.org/2000/svg" xml:space="preserve" width="81.957mm" height="28.4468mm" version="1.1" style="shape-rendering:geometricPrecision; text-rendering:geometricPrecision; image-rendering:optimizeQuality; fill-rule:evenodd; clip-rule:evenodd"
viewBox="0 0 8195.7 2844.68"
 xmlns:xlink="http://www.w3.org/1999/xlink"
 xmlns:xodm="http://www.corel.com/coreldraw/odm/2003">
 <defs>
  <style type="text/css">
   <![CDATA[
    .fil1 {fill:#588027}
    .fil10 {fill:#849C58}
    .fil9 {fill:#9FB183}
    .fil11 {fill:#C4CDA9}
    .fil3 {fill:#E8E3C9}
    .fil0 {fill:#EABE11}
    .fil7 {fill:#ECCC53}
    .fil6 {fill:#F2DE9A}
    .fil2 {fill:#F47E2E}
    .fil8 {fill:#F69655}
    .fil4 {fill:#F9B689}
    .fil5 {fill:white}
   ]]>
  </style>
 </defs>
 <g id="Layer_x0020_1">
  <metadata id="CorelCorpID_0Corel-Layer"/>
  <g id="_1909721839696">
   <path class="fil0" d="M1071.99 70.79l-123.33 13.92 -51.28 29.36 -17.02 -2.29 -37.21 23.81 -133.56 102.99c0,55.17 16.1,48.81 -32.52,37.47 12.75,49.13 16.85,34.46 -33.69,19.13l-28.24 16.02c1.29,36.12 8.51,26.1 -30.14,19.71l-9.65 28.44c17.21,60.45 28.21,50.25 -31.83,31.89l-18.68 17.27c12.58,51.6 28.73,47.02 -18.02,38.77 12.89,44.97 18.31,30.45 -32.43,30.45 -55.17,33.26 -46.06,37.61 -76.35,94.54 0.03,44.92 12.87,36.46 -26.67,36.46l1.21 9c2.58,48.9 17.1,41.14 -23.27,41.14l-0.22 12.09c0.57,43.28 13.12,35.61 -24.13,35.61l-1.17 11.91 -24.47 34.3 -57.52 89.12c-24.01,76.72 -27.85,45.23 -10.43,135.7l-4.27 26.22 21.26 35.63 1.43 38.28 31.86 48.61 20.2 66.07 40.22 79.21 428.74 431.66c42.46,42.54 98.69,90.9 149.34,133.9 55.23,27.22 40.19,22.18 60.85,48.3l154.1 121.15c17.87,7.37 43.28,14.87 59.56,25.59 31.11,20.48 23.54,18.76 43.88,38.81l22.06 30.89c165.79,114.33 102.1,119.2 267.77,235.63 11.89,-29.08 11.18,-36.19 30.26,-64.46l48.27 -54 72.88 -83.23c57.61,-85.8 50.85,-83.19 145.56,-120.98l64.37 -34.4c0,-38.79 -7.45,-24.5 40.13,-22.89l18.43 4.61 30.36 -26.9 15.99 -1.09 30.56 -25.41 53.03 -29.33c23.95,-30.34 -0.08,-22.49 67.35,-45.7l-4.67 -5.35c47.53,-77.5 55.61,-37.73 209.99,-199.39l32.69 -30.74c48.84,-25.24 34.12,-26.24 67.41,-75.29 2.12,-45.18 -11.43,-37.36 26.61,-37.36l49.39 -84.88c1.89,-40.22 -9.83,-32.49 25.78,-32.49l0.03 -9.65 21.37 -40.45 8.17 -20.43 23.66 -42.94 -4.44 -16.13 29.48 -49.99 -3.47 -76.66 20.63 -61.08 -0.34 -151.83 -22.98 -55.75 -0.14 -43.43c-37.88,-35.92 -19.25,46.64 -35.07,-44.63 -10.05,41.94 0.57,1.69 -36.01,24.23l-2.81 27.36 -26.24 55.66 -24.61 82.17 -24.81 41.31 7.94 21.8c6.5,55.17 21.77,45.23 -27.1,45.23l-5.1 -3.26c-48.59,127.91 -65.95,172.46 -193.43,206.49l-16.19 -4.07c-27.47,30.05 -17.36,25.07 -75.28,45.18l3.78 4.07c0,38.13 8.22,25.81 -34.84,26.32l3.99 1.7c0,53.71 9.99,35.55 -52.57,25.23l-93.91 18.8 -70.13 28.36 -59.99 -2.35c-24.09,35.78 44.52,28.68 -60.42,33.37 -119.32,-10.4 -104.71,172.35 -106.02,287.6 1.63,1.58 64.28,48.36 65.06,49.07l37.7 -41.45 21.54 12.32c0,-37.59 -7.65,-24.15 37.07,-25.84l13.21 1.95 44.23 -22.09 38.16 7.73c21.66,-30.94 -30.51,-17.19 66.55,-42.25l69.81 -20.34 -57.61 64.31 -84.8 8.11 4.39 1.46 -32.12 25.84 -88.18 48.24c-56.6,66.52 -4.15,24.47 -88.66,65.66l-15.41 43.23 -48.62 88.5 4.41 18.73 -22.34 41.49 -0.81 33.34c-4.03,6.59 -10.25,13.21 -12.57,19.42 -32.14,86.38 -18.74,-12.26 -22.49,-19.42l-12.92 -391.7c-33.8,-27.13 -29.28,-58.16 -30.05,-117.03 -1,-76.14 -3.04,-78.26 27.9,-121.35l-8.08 -47.73c-76.63,-56.2 49.28,7.45 -14.55,-0.08 -13.24,-1.58 0.46,9.11 -31.6,-7.39l-24.69 -101.47c-53.26,69.04 22.06,7.27 -85.55,73.16 -96.6,-0.14 -191.22,-8.05 -291.43,-13.18l-21.46 26.3 56.73 43.81c116.79,70.61 114.13,59.81 174.37,185.18l29.14 47.12 22.63 40.62 0.43 -0.25c48.73,0 29.88,-8.43 21.17,53.02l-24.26 331.4c-6.51,-4.38 -16.48,-18.05 -19.51,-13.12 -2.95,4.76 -14.47,-9.94 -18.17,-13.72 -28.18,-28.91 -19.7,-20.37 -39.19,-48.33l-70.78 -40.08c-108.84,-40.74 -26.42,5.5 -61.77,-55.49 -9.05,-51.17 8.4,-10.2 -27.13,-19.77l-38.99 -4.92c-88.35,10.17 0.43,1.17 -38.76,-45.04l-194.95 -164.61c-46.26,5.9 -38.44,17.42 -31.22,-26.7 -14.47,-32.34 15.75,-17.45 -42.12,-59.82 -51.68,0 -36.41,10.43 -26.38,-46.38l10.4 -22c-39.96,0 -25.64,8.17 -27.79,-39.42l-4.27 16.07c-14.38,-27.1 -85.8,49.74 0.89,-70.9 120.15,5.79 25.98,-8.08 71.33,48.99 11.98,49.22 42.69,65.03 88.5,105.25 50.67,44.46 71.85,70.19 120.92,112.82l113.13 97.63 159.45 167.76 23.69 -19.97 10.32 -55.95 -25.47 -58.07 2.52 -39.85c-41.45,-40.62 -24.84,-14.43 -48.59,-88.8l-25.55 -28.57 -99.52 -102.47 -66.46 -43.2c-121.67,-48.62 28.36,31.51 -39.34,-19.11 -3.61,-2.72 -12.03,-9.62 -15.55,-12.43 -3.41,-2.67 -9,-9.08 -13.38,-13.72l-26.85 -26.5c-43.54,-3.35 -35.09,9.54 -35.09,-29.2l-16.07 0.29c-72.82,-31.11 -32.49,-16.76 -102.24,-22.52l-27.11 -66.03 -0.43 -23.43c-53.91,-37.3 -79.26,-63.72 -100.72,-159.14l111.73 53.68 16.12 -1.71c-86.2,-57.82 -65.26,-34.96 -97.86,-130.98l-29.7 -33.75c-50.45,0 -32.98,9.37 -24.18,-50.28l-18.02 -121.26c-70.28,-77.41 -32,-196.36 -2.98,-226.44l24.52 -175.92 11.8 -66.26c-17.39,-56.38 -22.03,-40.45 36.04,-23.78l316.22 0.63c100.52,4.98 35.49,-3.1 58.04,34.29l72.53 23.89c73,25.13 43.86,3.47 83.94,53.52l3.81 2.66 135.71 82.96 11.6 20.29 99.06 56.61 -9.62 -20.29c-9.86,-55 -22.26,-42.28 32.11,-42.28 94.43,-83.48 105.37,-175.35 267.29,-220.19 0,-37.36 -7.82,-24.09 35.92,-27.7l16.73 4.04 48.9 -32.77c29.34,-38.05 -12.09,-44.95 -52.88,-72.83l-30.65 -21.25 -40.6 -33.04 -90.73 -43.28 -35.78 -25.61 -24.52 5.9 -43.8 -32.57 -30.88 13.57c-94.69,-11.8 -31.29,1.29 -54.03,-35.63l-199.05 -23.09 -114.96 1.49 -75.46 0.68c-25.13,33.15 46.61,30 -64.34,29zm575.59 1266.14l27.53 15.13 54.37 -25.75 63.46 2.32c0,-55.98 53.08,-35.56 80.98,-33.98l138.69 -18.56 31.77 -24.78 88.78 -47.62c35.03,-52.02 71.25,-92.87 125.56,-128.37l56.18 -96.89 20.25 -41.51 3.53 -33.34 25.49 -60.85 0.41 -196.93 -26.27 -58.72 -5.33 -53.92 -21.12 -34.03 -7.04 -33.89c-24.81,-20.92 -25.41,-15.07 -46.01,-61.68l-259.72 23.8 -112.85 48.16 -9.51 1.35 -30.02 27.13 -11.37 0.31 -38.59 24.9 -39.45 21.94c-39.16,49.65 -73.11,89.76 -123.82,128.43l-31.57 42.06 -22.2 45.86 4.5 23.43c-0.29,41.6 11.74,33.95 -24.47,33.95l-3.69 47.01c-1.66,39.91 11.63,113.31 -26.36,113.31l-1.55 265.33 71.17 -76.57c30.42,-29.05 38.96,-35.9 85.25,-67.13l71.76 -181.71 9.23 -43.03c-16.65,-52.51 -27.16,-40.19 26.93,-40.19 32.94,-28.42 26.84,-29.42 57.72,-48.79 2.95,-7.5 17.65,-42.51 19,-54.57 1.43,-12.49 0.17,-17.05 4.32,-22.92l34.52 -19.54c4.16,-43.4 -8.82,-35.87 30.26,-32.54 34.83,-96.4 -12.32,-29.77 58.52,-87.61l-28.76 53.17 0.26 4.27c0.31,48.22 14.61,40.14 -25.73,40.14l-41.65 79.92 -1.78 -0.57c-2.12,55.46 14.73,46.44 -30.71,46.44l-61.76 191.74 16.76 44.06c16.04,-15.3 -5.82,-2.89 39.3,-34.15 9.57,-6.62 48.04,-25.67 59.59,-31.88l43.06 -27.3c0,-41.54 -8.08,-25.19 44.37,-28.94l5.5 -3.18 35.44 -11.37c26.73,-31.17 -44.83,-20.86 65.8,-40.08 -21.88,61.54 7.85,35.09 -56.17,49.19l-29 19.11 -30.88 28.16c-30.94,21.37 -36.73,22.37 -77.86,49.27 -51.08,81.07 -100.99,102.36 -163.58,159.57 -61.31,56.01 -96.26,104.94 -155.59,174.49l6.33 32.52c-19.31,-99.21 -3.35,-4.81 37.82,-33.58z"/>
   <path class="fil0" d="M103.23 1138.98l0.06 37.21 -31.29 47.87 -12.74 244.42 -0.2 178.37 21.48 205.06 22.75 40.68 53.6 123.78c27.79,24.47 23.72,8.8 43.97,68.16l50.48 81.62 221.05 227.95c45.63,31.97 126.25,85.97 170.14,125.85 47.52,0.6 39.76,-13.7 39.76,25.46l97.72 39.42c41.51,0.81 33.66,-11.17 33.66,25.5l37.13 4.41 30.96 22.15 24.58 -2.09c36.41,-0.46 28.59,-10.2 28.59,23.83l41.57 3.09 32.35 22.64 25.03 4.52 64.72 23.52 69.67 -2.18 50.56 27.36 56.18 -0.4 480.17 -4.07 86.86 0.72 48.76 -19.62 57.67 -0.2 70.73 -30.77 100.67 -19.08 37.41 -33.09 23 2.89 31.23 -21.77 41.6 -3.09 29.02 -24.18 63.48 -25.93 57.87 -31.02c4.87,-11.55 17.7,-5.13 26.61,-7.48l169.28 -122.58c15.87,-18.97 38.16,-52.23 56.21,-70.71 42.26,-43.2 0.8,-19.48 78.04,-46.15l37.47 -74.34c26.7,-128.2 -4.3,-33.6 47.1,-76.92l7.04 17.93 43.29 -74.39 -3.09 -18.17 23.31 -35.61 8.63 -19.28 22.8 -43.17 -6.39 -22.83 28.22 -52.77 -5.41 -52.28 25.44 -52.66c4.84,-268.4 -14.53,-289.48 -69.16,-518.61l-23.46 -39.79 -5.62 11.66c-58.18,0 -47.7,14.09 -32.08,-41.8l-11.32 -35.26 0.06 -15.16 -46.87 5.73 -32.46 62.74 -19.68 49.53 -24.69 81.08c0.68,46.41 14.61,39.04 -23.26,39.04l-66.5 168.25c6.36,48.82 17.91,37.64 -29.68,37.64l-6.93 -10.71 -27.73 38.27 -10.8 37.5 -43.8 28.28c9.62,39.59 18.39,32.06 -21.09,27.13 7.42,38.47 17.16,31.4 -19.45,29.22 6.07,36.55 14.96,28.73 -20.02,28.85 7.3,36.41 15.24,28.42 -21.17,26.24l-23.09 26.5c7.84,39.82 13.72,29.91 -26.88,19.25l-33.46 16.01c1.35,37.73 9,24.21 -33.74,31.4l-95.66 78.41c-4.27,4.36 -9.77,10.34 -13.01,12.84l-34.8 22.89c-3.41,-5.56 -14.33,6.7 -21.55,9.88l-0.63 3.35 -78.46 51.65 -10.26 2.52c-24.86,28.59 -8.99,24.12 -68.41,43.95l-10.77 0.11c0,38.65 8.02,25.7 -36.7,25.24l-3.78 4.24c-22.6,24.01 -9.86,16.96 -41.14,39.82 -33.8,24.7 -26.21,13.3 -55.2,26.82l-7.85 1.23c-21.72,28.36 0.48,19.77 -60.59,48.61l-67.15 45.15c0,39.22 9.97,29.71 -28.68,29.71l-42.37 66.78c6.39,49.62 17.59,37.61 -31.77,37.61l-42.63 61.57c-0.23,38.27 9.86,29.51 -26.96,29.51l4.9 18.67c8.4,53.98 22.41,43.38 -27.61,43.38l-6.08 -9.69c-9.19,18.97 -41.88,97.18 -41.79,1.81l-71.91 -130.52c-38.27,0 -25.7,8.31 -27.76,-34.87l-46.01 -52.68c-5.67,-4.53 -12.86,-10.54 -16.93,-13.66 -107.66,-83.31 -96.4,-42.23 -155.41,-139.86l8.56 -7.68c-32.43,-12.32 -47.58,-12.26 -73.34,-27.79 -83.91,-50.59 -11.68,3.35 -56.49,-59.59l9.57 -5.15c-44.26,-1.03 -35.38,11.46 -35.38,-28.65l-42.52 -19.39 -53.45 -30.23c-2.78,-8.02 -9.05,-8.76 -13.52,-13.21l-10.98 -3.38 -55.72 -49.79 -102.13 -75.02c-28.24,-18.71 -41.88,-23.5 -67.43,-41.49l-41.86 -35.83c-2.26,-8.28 -8.19,-9.69 -12.34,-14.47 -34.3,-47.53 -72.6,-75.46 -109.44,-118.46 -37.56,0 -29.02,9.57 -26.96,-27.39 -34.09,2.41 -24.18,9.83 -26.64,-25.75l-88.18 -146.28 -24.98 -42.4 -2.81 2.18 -24.69 -38.24 -1.52 -8.74 -24.06 -32.43 -20.08 -77.24 -28.14 -44.14 0.18 -12.18c-47.9,0 -33.38,9.69 -25.42,-43.63l2.67 -61.53c-22.26,-18.74 -26.93,-15.07 -53.52,-32.55l4.22 10.6 -22.55 44.81z"/>
   <path class="fil1" d="M829.85 530.53l0.63 17.07 -27.7 72.65 5.56 47.21 0.09 178.02 -6.77 51.71 27.74 45.58 4.46 35.35 23.9 33.89 0.17 14.72 49.56 59.82c47.04,54.46 72.45,68.27 124.5,123.04l85.34 50.02 49.36 -2.75 28.42 21.95 71.91 -1.26 76.75 0.48 50.42 2.73c28.79,-23.07 3.86,-15.99 15.55,-50.83l-23.37 -49.81 -21.49 -42.29 -26.64 -35.24 -43.32 -66.4c-36.64,0 -27.21,9.02 -27.21,-28.08l-23.67 -16.81 -31.11 -21.09c-40.02,6.48 -30.31,13.81 -23.52,-27.44l-19.31 -27.39 -25.55 -23.43 -26.99 -20.63c-25.21,-19.22 -15.72,-3.72 -39.53,-34.35 -29.74,-38.27 -8.74,-16.67 -21.34,-50.71l-30.31 -10.11c-42.2,-35.89 -13.44,45.38 -47.93,-61.56 103.82,-0.69 22.17,-6.76 53.14,29.94l25.96 27.7 -2.64 3.23c4.13,1.64 56.15,21.66 61.05,24.3 42.68,22.89 21.06,14.18 48.82,39.1 24.26,57.13 127.05,142.81 175.81,185.38 37.01,23.92 15.95,-8.76 58.64,49.13 23.06,31.26 18.51,35.56 34.98,68.16l3.61 10.42c2.06,-1.71 41.11,-26.21 44.86,-29.13l2.49 -201.31 -19.48 -47.84 1.21 -15.44 -28.57 -46.64 -43.91 -85.63c-42.89,0 -36.76,12.63 -32.03,-24.87 -49.65,11.66 -37.22,19.23 -27.45,-32.51l-9.97 -22.35 -32.63 -22.83c-38.33,1.78 -29.45,11.38 -29.45,-25.72l-28.27 -25.5 -40.39 -22.6 -18.91 0.25 -31.26 -24.2 -42.57 3c-90.35,0.29 29.08,12.18 -49.36,-4.95 -5.3,-1.18 -15.01,-0.86 -18.85,-8.85 -3.66,-7.59 -10.6,-7.88 -15.67,-12.09l-155.84 0.05c0,38.65 8.99,27.74 -31.92,27.74z"/>
   <path class="fil2" d="M5834 1577.92l-5.01 -100.15c-2.21,-41.83 -10.98,-30.43 33.34,-26.53l24.7 1.77 37.27 19c36.35,-4.13 28.45,-13.04 27.9,21.91l-3.58 73.03 -29.36 25.21 -15.47 1.72c-51.43,57.06 -45.98,44 -69.79,-15.96zm-228.21 -105.54l35.67 -22.37 15.75 -23.32c27.31,-63.4 4.73,-62.17 27.85,0l3.78 72.73 -5.96 35.56c34.12,79.75 33.43,225.97 32.32,315.78l114.7 10.86 -2.4 -136.45 118.4 -3.01c88.21,-28.25 89.47,-32.43 125.91,-96.08l22.54 -37.93 -2.83 -105.23c-37.16,0 -25.1,7.8 -23.9,-34.63 -40.73,-75.46 7.37,-26.9 -70.3,-70.3 -42.66,1.2 -34.61,13.2 -34.61,-24.67 -109.72,-32.49 -119.49,-20 -223.71,1.17l-35.58 21.75c-92.67,-49.59 3.18,-29.25 -83.02,-59.85 -59.41,-21.08 -80.33,16.82 -94.45,27.3 -29.91,101.7 -13.12,105.4 79.84,128.69z"/>
   <path class="fil2" d="M7041.56 1619.8c-2,-37.44 -9.59,-26.67 30.89,-23.75l27.35 2.52c41.54,-1.57 33.89,-13.4 34.5,22.61 37.18,0.6 24.26,-6.99 21.74,37.38l0.83 19.08 -20.85 35.81c1.77,35.04 9.91,26.24 -25.62,25.24l-51.16 4.18c-36.61,4.9 -27.13,11.52 -21.06,-26.75l-39.5 -51.88 42.88 -44.44zm-57.72 -101.18l-58.07 83.31c-44.89,76.37 -13.61,-10.86 -36.58,91.27l38.18 62.28 43.06 52.6c42.06,0.48 32.03,-10.43 32.03,30.76l16.19 -3.75 102.64 3.24 49.39 -23.61 15.7 49.91 -22.12 26.44 -20.97 19.94c-0.94,0.54 -79.67,63.91 -79.67,-3.18l-15.64 -27.22 -29.42 -16.87 -37.76 -7.74 -40.96 -19.36 -24.24 -6.71 6.99 76.52 -2.15 19.97c37.27,0 26.79,-8.54 25.41,31.2l48.85 45.29c39.99,-0.49 32.02,-11.57 32.02,24.69l29.88 4.24 112.93 0 36.87 -3.32c23.12,-27.21 47.33,-52.42 72.94,-76.83l18.34 -217.67 0.65 -102.39 10.6 -134.73 -112.12 4.82 -43.69 -0.75 -140.49 -6.22 -28.79 23.87z"/>
   <path class="fil2" d="M4628.07 1758.97l-39.88 -15.61c-40.51,8.25 -33.46,18.56 -30.19,-20.08l4.98 -83.65c-0.4,-36.64 -7.91,-26.47 31.34,-19.31 10.2,-7.99 65.55,-67.7 65.55,0.63 29.05,24.32 9.8,-22.12 43.69,45.69 -16.88,78.75 -2.95,60.08 -75.49,92.33zm-158.05 -192.02c-0.95,38.16 9.77,30.36 -25.01,30.36l6.9 28.77 -4.84 113.18 20.63 69.19 53.83 52.34 17.85 -0.29 104.82 -0.31 19.22 -6.56c6.56,-6.02 16.07,-28.02 20.25,-17.42 2.93,7.33 14.93,-1.49 18.51,0.43 4.76,2.52 11.32,12 16.67,18.25l116.49 8.1 2.66 -541.7 -91.61 -23.12c-49.57,31.32 -37.85,-32.6 -40.57,53.09l-1.69 160.77c-132.61,-45.32 -172.26,-29.77 -234.11,54.92z"/>
   <path class="fil2" d="M3862.89 1591.78c-0.32,0.26 -76.78,82.63 -76.01,2.07l9.31 -136.48c94.28,3.61 76.09,0.23 112.22,63.71 -15.19,62.71 -2.27,38.45 -45.52,70.7zm-162.9 -238.46c0,37.73 8,26.41 -33.8,22.43 -47.27,-5.53 -23.15,162.43 -21.23,218.1 2.75,80.24 2.26,166.33 8.8,242.73l137.85 20.68 -0.95 -125.36 80.36 1.09 39.85 -18.36 17.56 -0.92c0,-37.36 -8.56,-26.9 31.23,-25.44l53.28 -29.65 16.62 -74.77 2.86 -113.93 1.75 -21.6 -28.02 -24.3 -16.67 -24.46 -31.83 -20.2c-48.04,7.97 -39.24,20.94 -39.24,-22.63 -95.2,-36.78 -118.86,-26.36 -218.42,-3.41z"/>
   <path class="fil2" d="M6277.41 1758.97l-35.81 -20.85c-35.03,1.77 -26.21,9.91 -25.24,-25.61l23.47 -96.17 97.08 1.77c27.07,83.42 28.36,112.07 -59.5,140.86zm-91.33 -239.38l-11.86 2.72c-20.77,36.42 12.03,21.29 -57.04,50.94l-1.77 12.66 -22.55 36.21 6.53 130.35 22.81 31.37 36.95 54.34 28.79 25.39 27.85 -4.9 91.47 -2.44 36.13 8.31 142.75 3.58 -1.18 -138.25 -4.81 -230.07c-41.82,-1.87 -95.19,5.58 -125.79,6.38 -35.41,0.95 -66.23,-10.85 -135.28,-8.62 0,35.3 7.34,23.87 -33,22.03z"/>
   <path class="fil2" d="M7556.57 1740.01c0,41.45 8.25,28.13 -39.11,22.4l-67.75 -42.97 1.37 -77.15 25.73 -24.98c72.25,-10.23 64.06,-19.77 90.7,31.94 48.79,25.21 55.86,28.91 2.26,59.05l-13.2 31.71zm-198.68 -169.71l-24.66 27.13 8.42 34.2 -5.79 102.39c16.9,88.58 26.56,100.04 108.81,127.97l88.69 0 36.78 -0.06c29,-31.57 -1.51,-32.11 28.19,-1.72l124.68 -2.95 -5.24 -277.31 -19.14 -84.45 -89.98 5.36c-4.33,4.55 -12.38,9.79 -15.62,10.54 -2.69,0.63 -12.49,3.35 -15.15,3.72 -33.89,4.67 -28.22,13.38 -28.22,-18.88 -124.16,-1.17 -126.91,1.15 -191.77,74.06z"/>
   <path class="fil2" d="M7729.4 1869.07l147.76 -0.06c-8.33,-49.36 -16.21,-77.84 -14.49,-131.95l27.16 -96.4c-5.91,-63.57 77.09,-9.37 77.12,-9.37l17.59 41.48 0.22 184.49 124.28 0 -4.93 -301.54c-38.04,0 -28.39,9.02 -25.61,-30.26 -35.18,-1.23 -26.38,7.88 -26.38,-27.33 -93.54,-9.65 -77.53,6.19 -145.25,10.2 -44.78,2.64 -72.59,-15.47 -163.15,-11.51l-14.32 372.25z"/>
   <path class="fil2" d="M4882.15 1768.86l4.67 34.63 39.44 60.02 28.25 -4.84 107.49 5.07 34.43 -0.49c25.87,-29.73 -1.57,-29.25 24.3,1.72l125.93 -5.3 1.95 -365.86 -123.41 1.78 4.32 148.28 -33.86 68.78 -15.99 28.07 -55.2 1.18c-33.4,1.32 -25.38,9.34 -24.09,-24.06l-0.98 -221.02 -114.33 -1.49 -2.92 273.53z"/>
   <path class="fil2" d="M6534.24 1860.7l97.17 -3.44c0,-35.86 -3.41,-86.14 -1.57,-119.63 5.3,-97.89 -2.07,-49.33 26.52,-88.38 -1.97,-48.53 17.45,-32.74 68.62,-34.15l23.52 29.94 4.98 201.68 113.39 12.69 6.65 -300.43 -49.14 -61.36 -127.71 -3.15c-0.43,0.4 -64.63,83.71 -64.63,-2.27l-104.53 1.78 6.73 366.72z"/>
   <path class="fil2" d="M4184.97 1600.64l43.63 -57.59 47.56 46.79c23.92,35.58 49.39,-55.35 15.3,53.74l-134.02 -11.77 27.53 -31.17zm-51.39 -76.03l-54.12 37.04 -16.33 25.49 -11.25 144.25 6.44 25.21c36.15,0 26.39,-8.74 26.93,28.56l41.77 50.56c35.44,0.98 26.93,-8.31 26.93,26.5l27.16 -5.33 112.95 -1.4 22.44 3.78c0,-37.36 -8.54,-26.87 31.25,-25.44l46.7 -49.9 -35.7 -38.85 -55.8 -6.62c0,37.9 9.56,29.54 -27.74,26.21l-64.8 -4.21 -32 -23.69 1.72 -13.63c70.68,-41.34 130.55,-10.58 237.35,-39.2l-24.44 -87.43 -0.14 -20.83c-34.32,0 -25.1,7.68 -21.03,-28.79l-19.82 -28.73 -20.34 -0.29 -35.7 -20.88 -130.98 4.78 -31.45 22.84z"/>
   <path class="fil2" d="M5283.16 1373.98l-17.45 386.25c39.62,0 25.04,-7.62 23.52,41l66.84 62.51 118.29 0 38.21 5.79 -23.72 -108.67c-18.53,-32.14 32.03,-26.81 -38.62,-25.44l-35.55 -22.91 -0.4 -14.7c-60.3,-133.41 28.25,-291.35 -47.58,-344.6l-41.6 -0.46 -41.94 21.23z"/>
   <path class="fil3" d="M1850.2 793.11c-30.88,19.37 -24.78,20.37 -57.72,48.79 -2.69,8.42 -5.76,18.36 -8.4,25.18l-27.76 58.04 -71.76 181.71c-48.3,77.67 -76.29,92.05 -133.64,143.27l38.93 101.19c1.55,-1.67 9.66,-8.31 13.58,-13.3 59.33,-69.55 94.28,-118.48 155.59,-174.49 62.59,-57.21 112.5,-78.5 163.58,-159.57l53.94 -62.19c31.05,-28.74 -2.26,12.11 38.73,-32.09l-5.5 3.18 -44.37 28.94 -43.06 27.3 -69.73 69.01c-12.15,7.33 -61.97,30.02 -94.02,46.18 23.2,-83.02 -12.98,-41.08 48.1,-93.22l61.76 -191.74 30.71 -46.44 1.78 0.57 -50.74 39.68z"/>
   <path class="fil2" d="M5503.17 1598.23c44.41,35.07 26.82,202.48 21.61,274.22l133.15 -8.94 0.09 -365.4 -139.86 2.17 -14.99 97.95z"/>
   <path class="fil3" d="M5503.17 1598.23l-14.32 162.63 23.72 108.67c14.27,48.35 144.21,15.67 201.08,10.14 -30.65,-84.23 -39.88,-236.35 -30.77,-344.69l5.96 -35.56 -30.82 -1.31 -0.09 365.4 -133.15 8.94c5.21,-71.74 22.8,-239.15 -21.61,-274.22z"/>
   <path class="fil4" d="M4838 1321.29l-2.66 541.7 -116.49 -8.1c-5.35,-6.25 -11.91,-15.73 -16.67,-18.25 -3.58,-1.92 -15.58,6.9 -18.51,-0.43 -4.18,-10.6 -13.69,11.4 -20.25,17.42l55.43 1.26c18.14,37.64 -15.09,22.43 44.75,27.21 106.37,8.51 67.84,-17.13 71.74,-19.11l46.81 -94.13 2.92 -273.53c-35.84,-23.32 -25.5,42 -30.4,-47.04l-16.67 -127c-5.18,-3.18 -12.66,-15.12 -15.41,-9.77 -2.75,5.33 -12.75,-7.07 -16.47,-7.88 -39.57,-8.5 -19.89,-6.18 -59.73,-5.47l91.61 23.12z"/>
   <path class="fil4" d="M6494.65 1729.87c-4.87,158.48 -40.42,100.38 39.59,130.83l6.7 19.25 100.73 -2.72 14.69 -227.98c-28.59,39.05 -21.22,-9.51 -26.52,88.38 -1.84,33.49 1.57,83.77 1.57,119.63l-97.17 3.44 -6.73 -366.72c-3.01,5.21 -8.54,6.42 -9.43,15.44 -0.89,9.4 -6.9,12.49 -7.96,17.02l-15.47 203.43z"/>
   <path class="fil5" d="M4562.98 1639.63l-4.98 83.65 30.19 20.08 39.88 15.61c72.54,-32.25 58.61,-13.58 75.49,-92.33 -33.89,-67.81 -14.64,-21.37 -43.69,-45.69l-65.55 -0.63 -31.34 19.31z"/>
   <path class="fil5" d="M6216.36 1712.51l25.24 25.61 35.81 20.85c87.86,-28.79 86.57,-57.44 59.5,-140.86l-97.08 -1.77 -23.47 96.17z"/>
   <path class="fil6" d="M1755.18 2733.11l-480.17 4.07c6.79,3.35 15.79,1.75 20.08,10.52l92.54 20.65c101.1,8.42 291.69,25.07 367.55,-35.24z"/>
   <path class="fil7" d="M1528.14 1250.53c-29.33,43.46 -50.99,68.84 -83.25,114.39 107.61,-65.89 32.29,-4.12 85.55,-73.16l24.69 101.47c32.06,16.5 18.36,5.81 31.6,7.39 63.83,7.53 -62.08,-56.12 14.55,0.08 31.14,-24.55 15.96,11.92 46.3,-63.77 -41.17,28.77 -57.13,-65.63 -37.82,33.58l-6.33 -32.52c-3.92,4.99 -12.03,11.63 -13.58,13.3l-38.93 -101.19c57.35,-51.22 85.34,-65.6 133.64,-143.27 -46.29,31.23 -54.83,38.08 -85.25,67.13l-71.17 76.57z"/>
   <path class="fil5" d="M7451.08 1642.29l-1.37 77.15 67.75 42.97 39.11 -22.4 13.2 -31.71 -2.26 -59.05c-26.64,-51.71 -18.45,-42.17 -90.7,-31.94l-25.73 24.98z"/>
   <path class="fil4" d="M6753.48 1846.72c21.23,42.63 -32.46,30.68 44.26,35.61 124.96,-3.52 57.44,-15.87 124.85,24.12l-6.99 -76.52c-22.03,-29.96 -61.22,-74.45 11.77,-74.45l-38.18 -62.28c22.97,-102.13 -8.31,-14.9 36.58,-91.27 -6.25,-5.28 -16.33,-19.4 -19.88,-14.33 -3.53,5.02 -15.21,-7.59 -32.37,-28.62l-6.65 300.43 -113.39 -12.69z"/>
   <path class="fil4" d="M5713.65 1879.67c148.8,7.16 137.22,13.03 130.18,-132.27l102.07 -25.24 -118.4 3.01 2.4 136.45 -114.7 -10.86c1.11,-89.81 1.8,-236.03 -32.32,-315.78 -9.11,108.34 0.12,260.46 30.77,344.69z"/>
   <path class="fil5" d="M3786.88 1593.85l76.01 -2.07c43.25,-32.25 30.33,-7.99 45.52,-70.7 -36.13,-63.48 -17.94,-60.1 -112.22,-63.71l-9.31 136.48z"/>
   <polygon class="fil5" points="7041.56,1619.8 7038.18,1716.12 7059.24,1742.87 7110.4,1738.69 7136.02,1713.45 7156.87,1677.64 7156.04,1658.56 7134.3,1621.18 7099.8,1598.57 7072.45,1596.05 "/>
   <path class="fil5" d="M5828.99 1477.77l5.01 100.15 69.79 15.96 15.47 -1.72c0,-35.3 -8.17,-25.21 29.36,-25.21l3.58 -73.03 -27.9 -21.91 -37.27 -19 -24.7 -1.77c0,38.13 8.48,26.53 -33.34,26.53z"/>
   <path class="fil4" d="M4180.13 1723.14c97.66,0.37 207.01,-9.03 266.94,16.12l4.84 -113.18c-35.4,-18.77 -30.05,-8.94 -58.87,-29.57l24.44 87.43c-106.8,28.62 -166.67,-2.14 -237.35,39.2z"/>
   <path class="fil6" d="M1606.9 2219.09l-48.27 54c-19.08,28.27 -18.37,35.38 -30.26,64.46 -165.67,-116.43 -101.98,-121.3 -267.77,-235.63 31.8,51.25 178.79,207.21 272.73,258.74 20,-35.86 47.47,-79.75 73.57,-141.57z"/>
   <path class="fil3" d="M7729.4 1869.07c18.65,13.52 -2.61,22.37 61.59,33.43 20.54,3.55 80.59,1.78 98.12,1.78l0.72 -263.62 -27.16 96.4c-1.72,54.11 6.16,82.59 14.49,131.95l-147.76 0.06z"/>
   <path class="fil7" d="M643.38 295.18c-37.38,-16.3 -29.47,-23.95 -28.24,16.02l-30.14 19.71c-38.42,-8.68 -24.72,-10.46 -9.65,28.44l-31.83 31.89c-39.42,-18.36 -32.89,-23.78 -18.68,17.27 -40.54,2.9 -28.65,-6.04 -18.02,38.77 -39.19,-7.42 -25.41,-13.58 -32.43,30.45 50.74,0 45.32,14.52 32.43,-30.45 46.75,8.25 30.6,12.83 18.02,-38.77l18.68 -17.27c60.04,18.36 49.04,28.56 31.83,-31.89l9.65 -28.44c38.65,6.39 31.43,16.41 30.14,-19.71l28.24 -16.02c50.54,15.33 46.44,30 33.69,-19.13 48.62,11.34 32.52,17.7 32.52,-37.47 -51.54,5.41 -44.23,-9.66 -32.52,37.47 -41.96,-9.37 -34.14,-20.26 -33.69,19.13z"/>
   <polygon class="fil5" points="7121.29,1838.33 7047.98,1880.61 7063.62,1907.83 7143.29,1911.01 7164.26,1891.07 7186.38,1864.63 7170.68,1814.72 "/>
   <path class="fil6" d="M841.69 1202.17l-111.73 -53.68c21.46,95.42 46.81,121.84 100.72,159.14 -19.48,-28.19 -19.45,-27.36 -40.62,-61.48l-31.22 -54.49c38.9,6.33 12.2,0.49 82.85,10.51zm16.12 -1.71l40.71 30.08c-65.09,-114.62 9.63,43.25 -125.96,-144.45 -2.87,-3.95 -8.31,-11.14 -12.61,-16.61 32.6,96.02 11.66,73.16 97.86,130.98z"/>
   <path class="fil4" d="M5414.28 1697.81l1.4 -365.55 -48.98 20.95c75.83,53.25 -12.72,211.19 47.58,344.6z"/>
   <path class="fil7" d="M2140.89 1828.42c111.99,-68.73 175.04,-93.28 242.68,-230.13l-32.69 30.74c-154.38,161.66 -162.46,121.89 -209.99,199.39z"/>
   <path class="fil7" d="M2257.49 1256.29c127.48,-34.03 144.84,-78.58 193.43,-206.49l-25.04 25.09c-105.34,138.26 -10.74,46.96 -154.75,169.05 -3.01,2.55 -9.11,8.22 -13.64,12.35z"/>
   <path class="fil8" d="M4276.16 1589.84c-26.18,37.75 9.31,25.03 -48.19,26.84 -81.79,2.52 -20.57,-0.57 -43,-16.04l91.19 -10.8zm0 0l-47.56 -46.79 -43.63 57.59 -27.53 31.17 134.02 11.77c34.09,-109.09 8.62,-18.16 -15.3,-53.74z"/>
   <path class="fil6" d="M2531.85 1646.67l-43.8 28.28c-37.82,-4.41 -28.71,-11.6 -21.09,27.13 -36.44,-5.36 -25.26,-10.77 -19.45,29.22 -36.55,-2.18 -27.04,-9.4 -20.02,28.85l-21.17 26.24c-38.11,-2.12 -30.4,-10.94 -23.09,26.5l-26.88 19.25c-41.36,-10.23 -34.89,-21.92 -33.46,16.01 -46.18,-7.62 -33.74,-16.7 -33.74,31.4 42.74,-7.19 35.09,6.33 33.74,-31.4l33.46 -16.01c40.6,10.66 34.72,20.57 26.88,-19.25l23.09 -26.5c36.41,2.18 28.47,10.17 21.17,-26.24 34.98,-0.12 26.09,7.7 20.02,-28.85 36.61,2.18 26.87,9.25 19.45,-29.22 39.48,4.93 30.71,12.46 21.09,-27.13l43.8 -28.28 10.8 -37.5 27.73 -38.27c-49.93,0 -39.16,-11.57 -27.73,38.27l-10.8 37.5z"/>
   <path class="fil7" d="M688.05 864.19l-2.98 -226.44c-29.02,30.08 -67.3,149.03 2.98,226.44z"/>
   <path class="fil6" d="M1611.51 1686.81l-2.15 -238.38c-30.94,43.09 -28.9,45.21 -27.9,121.35 0.77,58.87 -3.75,89.9 30.05,117.03z"/>
   <path class="fil5" d="M6915.6 1829.93l24.24 6.71c45.75,3.01 37.87,14.72 30.59,-28.56l-43.06 -52.6c-72.99,0 -33.8,44.49 -11.77,74.45zm102.96 33.81l0.09 -28.65 -16.19 3.75 -21.66 17.16 37.76 7.74z"/>
   <path class="fil6" d="M1806.69 991.04c-61.08,52.14 -24.9,10.2 -48.1,93.22 32.05,-16.16 81.87,-38.85 94.02,-46.18l69.73 -69.01c-11.55,6.21 -50.02,25.26 -59.59,31.88 -45.12,31.26 -23.26,18.85 -39.3,34.15l-16.76 -44.06z"/>
   <path class="fil4" d="M3791.61 1857.26l-137.85 -20.68c14.18,45.15 -25.33,40.48 63.88,48.3 103.53,9.08 65.66,-22.37 73.97,-27.62z"/>
   <path class="fil9" d="M1056.69 786.26l0.86 -14.03 -25.96 -27.7 -5.21 31.62 30.31 10.11c12.6,34.04 -8.4,12.44 21.34,50.71 23.81,30.63 14.32,15.13 39.53,34.35l26.99 20.63 25.55 23.43 19.31 27.39c-6.79,41.25 -16.5,33.92 23.52,27.44l31.11 21.09c-4.35,-35.3 5.19,-27.16 -31.11,-21.09l-23.52 -27.44c6.71,-35.75 15.27,-28.36 -19.31,-27.39l-25.55 -23.43c0.03,-33.58 7.76,-25.21 -26.99,-20.63 -21.05,-39.28 -1.37,-12.43 -27.67,-47.58 -0.95,-1.26 -32.49,-36.7 -33.2,-37.48zm-1.78 -10.8c70.62,55.9 39.13,33.9 109.87,63.4 -27.76,-24.92 -6.14,-16.21 -48.82,-39.1 -4.9,-2.64 -56.92,-22.66 -61.05,-24.3z"/>
   <polygon class="fil6" points="4012.94,1658.62 4051.88,1731.39 4063.13,1587.14 4029.56,1583.85 "/>
   <path class="fil6" d="M472.39 2394.1l-221.05 -227.95c55.72,91.75 126.48,176.92 221.05,227.95z"/>
   <path class="fil6" d="M1363.1 1607.03c-60.24,-125.37 -57.58,-114.57 -174.37,-185.18l174.37 185.18z"/>
   <path class="fil7" d="M1294.52 2357.54c-50.88,-82.45 -100.32,-109.49 -172.34,-153.52 59.01,97.63 47.75,56.55 155.41,139.86 4.07,3.12 11.26,9.13 16.93,13.66z"/>
   <polygon class="fil4" points="7297.68,1734.02 7335.86,1734.02 7341.65,1631.63 7298.33,1631.63 "/>
   <path class="fil6" d="M1538.34 646.64l-99.06 -56.61c26.15,45.89 23,43.91 40.48,90.47 122.24,-0.26 13.58,6.19 58.58,-33.86z"/>
   <path class="fil6" d="M1938.3 663.54c4.09,43.66 13.89,32.54 -30.26,32.54l-34.52 19.54c-4.15,5.87 -2.89,10.43 -4.32,22.92 -1.35,12.06 -16.05,47.07 -19,54.57l50.74 -39.68 41.65 -79.92 25.73 -40.14 -0.26 -4.27 -29.76 34.44zm-39.14 89.32l-30.71 46.44c45.44,0 28.59,9.02 30.71,-46.44z"/>
   <path class="fil7" d="M59.06 1646.85l0.2 -178.37c-22.41,22.32 -23.72,-7.3 -27.22,77.1 -0.34,8.45 1.55,38.58 2.95,46.72 7.62,44.61 10.23,33.58 24.07,54.55z"/>
   <path class="fil6" d="M5095.66 1712.65l-15.99 28.07 15.99 -28.07 33.86 -68.78 -4.32 -148.28 -22.89 96.77c-2.78,41.42 -2.1,76.2 -6.65,120.29z"/>
   <path class="fil6" d="M6343.39 1864.54c49.82,20.34 120.29,19.19 197.55,15.41l-6.7 -19.25c-80.01,-30.45 -44.46,27.65 -39.59,-130.83l-9.69 0 1.18 138.25 -142.75 -3.58z"/>
   <path class="fil9" d="M808.43 845.48l-0.09 -178.02c-5.67,10.95 -21.77,-5.33 -24.87,77.52 -0.31,8.45 1.44,38.51 2.75,46.61 13.1,82.11 8.6,27.96 22.21,53.89z"/>
   <polygon class="fil4" points="4029.56,1583.85 4063.13,1587.14 4079.46,1561.65 4032.42,1469.92 "/>
   <path class="fil7" d="M960.46 1419.61c-25.21,-25.44 -13.52,-18.16 -53.31,-44.03 -33.44,-21.74 -39.77,-22.35 -76.04,-44.52l27.11 66.03c69.75,5.76 29.42,-8.59 102.24,22.52z"/>
   <path class="fil4" d="M7723.01 1857.26l-124.68 2.95c-29.7,-30.39 0.81,-29.85 -28.19,1.72 44.84,16.82 22.01,22.44 78.73,21.09 127.37,-2.95 36.55,1.03 74.14,-25.76z"/>
   <path class="fil6" d="M1922.6 1003.93c41.13,-26.9 46.92,-27.9 77.86,-49.27l30.88 -28.16c2.12,-35.44 -6.59,-27.76 29,-19.11l-9.63 -9.11 -35.44 11.37c-40.99,44.2 -7.68,3.35 -38.73,32.09l-53.94 62.19zm42.8 -62.16l44.37 -28.94c-52.45,3.75 -44.37,-12.6 -44.37,28.94z"/>
   <path class="fil7" d="M781.58 1495.61c-3.15,-61.33 -18.39,-43.86 34.29,-60.1 -6.81,65.89 -9.45,0.77 37.93,38.19 -45.35,-57.07 48.82,-43.2 -71.33,-48.99 -86.69,120.64 -15.27,43.8 -0.89,70.9z"/>
   <path class="fil6" d="M1679.78 2135.86c5.47,-3.72 13.98,-15.84 16.41,-11.14 2.41,4.56 12.41,-8.77 15.64,-11.37l113.51 -98.47c-94.71,37.79 -87.95,35.18 -145.56,120.98z"/>
   <path class="fil7" d="M1938.3 663.54c-39.08,-3.33 -26.1,-10.86 -30.26,32.54 44.15,0 34.35,11.12 30.26,-32.54l29.76 -34.44 28.76 -53.17c-70.84,57.84 -23.69,-8.79 -58.52,87.61zm30.02 -30.17l-25.73 40.14c40.34,0 26.04,8.08 25.73,-40.14z"/>
   <path class="fil4" d="M7038.18 1716.12c-6.07,38.27 -15.55,31.65 21.06,26.75l-21.06 -26.75 3.38 -96.32 30.89 -23.75c-40.48,-2.92 -32.89,-13.69 -30.89,23.75l-42.88 44.44 39.5 51.88z"/>
   <path class="fil6" d="M2599.37 2397.91c76.15,-36.04 31.97,-16.25 94.54,-81.34 3.44,-3.55 9.34,-9.13 12.52,-12.29l27.19 -23.23c-77.24,26.67 -35.78,2.95 -78.04,46.15 -18.05,18.48 -40.34,51.74 -56.21,70.71z"/>
   <path class="fil7" d="M1130.74 2196.34c-4.01,-4.18 -9.74,-16.99 -11.74,-12.83l-40.83 -33.55c-33.51,-21.6 -34.98,-18.65 -77.26,-41 44.81,62.94 -27.42,9 56.49,59.59 25.76,15.53 40.91,15.47 73.34,27.79z"/>
   <path class="fil3" d="M1946.83 1712.02l84.8 -8.11 -12.2 -43.97c-97.06,25.06 -44.89,11.31 -66.55,42.25l-6.05 9.83z"/>
   <path class="fil4" d="M8109.04 1857.26l-124.28 0c44.84,33.49 -52.45,22.98 52.29,25.24 120.17,2.61 40.85,-2 71.99,-25.24z"/>
   <path class="fil7" d="M1132 1378.04l21.46 -26.3 -119.43 -45.86c61.62,62.11 13.72,31.63 97.97,72.16z"/>
   <polygon class="fil3" points="7047.98,1880.61 7121.29,1838.33 7018.65,1835.09 7018.56,1863.74 "/>
   <path class="fil6" d="M1412.21 2078.94l-8.2 -64.63 -68.67 -10.54c19.49,27.96 11.01,19.42 39.19,48.33 3.7,3.78 15.22,18.48 18.17,13.72 3.03,-4.93 13,8.74 19.51,13.12z"/>
   <path class="fil7" d="M2060.34 907.39c-35.59,-8.65 -26.88,-16.33 -29,19.11l-30.88 28.16 30.88 -28.16 29 -19.11c64.02,-14.1 34.29,12.35 56.17,-49.19 -110.63,19.22 -39.07,8.91 -65.8,40.08l9.63 9.11z"/>
   <path class="fil6" d="M1633.48 679.58c50.71,-38.67 84.66,-78.78 123.82,-128.43 -71.99,39.28 -82.05,56.67 -123.82,128.43z"/>
   <path class="fil6" d="M2133.16 1203.69c73.54,-47.09 74.28,-54.8 125.56,-128.37 -54.31,35.5 -90.53,76.35 -125.56,128.37z"/>
   <path class="fil4" d="M4294.06 1855.49l-112.95 1.4c51.71,45.32 65,48.24 112.95,-1.4z"/>
   <path class="fil6" d="M5246.66 1859.67l-125.93 5.3c-25.87,-30.97 1.57,-31.45 -24.3,-1.72 30.77,10.92 34.47,19.6 77.52,18.71 97.78,-2.04 49.79,-7.56 72.71,-22.29z"/>
   <path class="fil7" d="M1798.67 1728.12l-37.7 41.45c-0.78,-0.71 -63.43,-47.49 -65.06,-49.07l21.88 75.69c72.31,-35.33 43.69,-11.12 80.88,-68.07z"/>
   <path class="fil9" d="M1434.21 1141.53c-16.47,-32.6 -11.92,-36.9 -34.98,-68.16 -42.69,-57.89 -21.63,-25.21 -58.64,-49.13 40.3,62.23 38.18,70.85 93.62,117.29z"/>
   <path class="fil10" d="M1026.38 776.15l5.21 -31.62c-30.97,-36.7 50.68,-30.63 -53.14,-29.94 34.49,106.94 5.73,25.67 47.93,61.56z"/>
   <path class="fil10" d="M1362.39 701.09c-4.73,37.5 -10.86,24.87 32.03,24.87 -3.93,-42.83 7.96,-36.27 -32.03,-24.87 4.09,-42.48 14.18,-32.51 -27.45,-32.51 -9.77,51.74 -22.2,44.17 27.45,32.51z"/>
   <path class="fil4" d="M5474.36 1863.74l-118.29 0c25.24,20.31 -44.61,27.33 59.13,20.91 96.97,-5.99 28.87,-3.44 59.16,-20.91z"/>
   <path class="fil6" d="M696.78 1884.14c-29.3,-44.98 9.8,-15.93 -50.19,-56.96 -21.28,-14.58 -48.12,-23 -71.44,-34.83 4.15,4.78 10.08,6.19 12.34,14.47l41.86 35.83c25.55,17.99 39.19,22.78 67.43,41.49z"/>
   <path class="fil6" d="M1529.69 985.2c37.99,0 24.7,-73.4 26.36,-113.31 -3.78,6.88 -10.52,8.2 -11.6,20.43 -1.09,12.06 -8.11,15.44 -9.26,21.23 -10.17,51.53 -7.36,19.85 -5.5,71.65z"/>
   <path class="fil6" d="M1326.75 39.62c-55.4,-45.78 -63.14,-34.01 -114.96,1.49l114.96 -1.49z"/>
   <path class="fil4" d="M5062 1863.74l-107.49 -5.07c16.16,19.45 -33.06,26.44 50.19,24.52 105.57,-2.43 18.8,3.24 57.3,-19.45z"/>
   <path class="fil7" d="M1873.92 1294.65c-27.9,-1.58 -80.98,-22 -80.98,33.98 85.17,-11.64 52.77,-5.42 80.98,-33.98z"/>
   <path class="fil4" d="M7169.53 2031.84l-112.93 0c22.78,18.14 -41.54,26.1 56.47,20.09 92.82,-5.7 27.16,-2.52 56.46,-20.09z"/>
   <path class="fil4" d="M4644.2 1860.19l-104.82 0.31c46.23,49.5 60.36,29.88 104.82,-0.31z"/>
   <path class="fil3" d="M175.08 1116.12l-14.41 -62.17c-93.05,-14.87 -6.68,-7.39 -39.11,29.62 26.59,17.48 31.26,13.81 53.52,32.55z"/>
   <path class="fil7" d="M2553.65 779.53c36.58,-22.54 25.96,17.71 36.01,-24.23 15.82,91.27 -2.81,8.71 35.07,44.63l-47.36 -84.45 -23.72 64.05z"/>
   <path class="fil7" d="M709.59 461.83l47.84 -90.04c-58.07,-16.67 -53.43,-32.6 -36.04,23.78l-11.8 66.26z"/>
   <path class="fil4" d="M5903.79 1593.88l-69.79 -15.96c23.81,59.96 18.36,73.02 69.79,15.96z"/>
   <path class="fil6" d="M1272.72 1665.95c-40.11,-90.06 -13.44,-59.15 -99.52,-102.47l99.52 102.47z"/>
   <path class="fil6" d="M1176.35 1789.4l-113.13 -97.63c45.18,78.52 27.16,61.1 113.13,97.63z"/>
   <path class="fil4" d="M3862.89 1591.78l-76.01 2.07c-0.77,80.56 75.69,-1.81 76.01,-2.07z"/>
   <path class="fil4" d="M4562.98 1639.63l31.34 -19.31 65.55 0.63c0,-68.33 -55.35,-8.62 -65.55,-0.63 -39.25,-7.16 -31.74,-17.33 -31.34,19.31z"/>
   <path class="fil4" d="M6307.26 1856.23l-91.47 2.44c44.09,50.7 57.47,29.65 91.47,-2.44z"/>
   <path class="fil5" d="M4276.16 1589.84l-91.19 10.8c22.43,15.47 -38.79,18.56 43,16.04 57.5,-1.81 22.01,10.91 48.19,-26.84z"/>
   <path class="fil6" d="M1335.8 1957.16c29.85,42.91 -45.35,25.61 54.63,38.82l-30.94 -58.79 -23.69 19.97z"/>
   <path class="fil7" d="M2138.95 1329.49c-60.05,1.43 -52.57,-17.51 -52.57,25.23 62.56,10.32 52.57,28.48 52.57,-25.23z"/>
   <path class="fil6" d="M1427.68 569.74l-135.71 -82.96c45.38,55.92 -27.67,6.33 57.99,53.37 25.58,14.07 47.49,17.65 77.72,29.59z"/>
   <path class="fil6" d="M6696.67 1494.47l-64.63 -2.27c0,85.98 64.2,2.67 64.63,2.27z"/>
   <polygon class="fil7" points="2031.63,1703.91 2089.24,1639.6 2019.43,1659.94 "/>
   <path class="fil7" d="M1175.66 1888.43c-4.5,-4.67 -10.43,-18.1 -13.78,-13.69l-63.97 -36.27c39.19,46.21 -49.59,55.21 38.76,45.04l38.99 4.92z"/>
   <path class="fil6" d="M7143.29 1911.01l-79.67 -3.18c0,67.09 78.73,3.72 79.67,3.18z"/>
   <path class="fil7" d="M2831.71 1188.02c-15.62,55.89 -26.1,41.8 32.08,41.8 -4.07,-49.65 10.75,-39.79 -32.08,-41.8l-11.32 -35.26 11.32 35.26z"/>
   <path class="fil6" d="M1742.26 1853.22c84.51,-41.19 32.06,0.86 88.66,-65.66 -27.58,12.44 -25.72,3.16 -53.6,25.3 -38.38,30.48 -7.19,3.52 -35.06,40.36z"/>
   <path class="fil6" d="M438.75 1646.5c-2.06,36.96 -10.6,27.39 26.96,27.39 -1.2,-37.62 8.97,-29.77 -26.96,-27.39 2.09,-35.32 9.94,-25.75 -26.64,-25.75 2.46,35.58 -7.45,28.16 26.64,25.75z"/>
   <path class="fil7" d="M1862.35 1399.53c-98.49,12.46 -41.91,-2.44 -60.42,33.37 104.94,-4.69 36.33,2.41 60.42,-33.37z"/>
   <path class="fil7" d="M1560.83 584.07c-54.37,0 -41.97,-12.72 -32.11,42.28 42,0 26.07,8.54 32.11,-42.28z"/>
   <path class="fil4" d="M7533.36 1861.99l-88.69 0c43.71,36.64 44.97,36.64 88.69,0z"/>
   <path class="fil4" d="M6939.84 1836.64l40.96 19.36 21.66 -17.16c0,-41.19 10.03,-30.28 -32.03,-30.76 7.28,43.28 15.16,31.57 -30.59,28.56z"/>
   <path class="fil7" d="M1515.68 2540.11c-40.53,0 -24.63,-7.82 -27.61,43.38 50.02,0 36.01,10.6 27.61,-43.38z"/>
   <path class="fil6" d="M1818.78 2201.27c28.99,-13.52 21.4,-2.12 55.2,-26.82 31.28,-22.86 18.54,-15.81 41.14,-39.82 -6.47,3.07 -49.82,23.35 -55.52,27.5 -49.79,36.3 -16.16,12.84 -40.82,39.14z"/>
   <path class="fil4" d="M7569.77 1708.3c53.6,-30.14 46.53,-33.84 -2.26,-59.05l2.26 59.05z"/>
   <path class="fil7" d="M1579.83 98.34c-16.65,-37.81 34.32,-21.51 -54.03,-35.63 22.74,36.92 -40.66,23.83 54.03,35.63z"/>
   <path class="fil6" d="M1238.54 2071.03c-20.34,-20.05 -12.77,-18.33 -43.88,-38.81 -16.28,-10.72 -41.69,-18.22 -59.56,-25.59 21.22,19.86 12.03,18.8 45.32,38.25 2.29,1.35 56.32,25.35 58.12,26.15z"/>
   <path class="fil7" d="M1756.32 925.12l27.76 -58.04c2.64,-6.82 5.71,-16.76 8.4,-25.18 -54.09,0 -43.58,-12.32 -26.93,40.19l-9.23 43.03z"/>
   <path class="fil7" d="M197.83 1221.28c-0.75,-51.31 15.01,-43.63 -25.42,-43.63 -7.96,53.32 -22.48,43.63 25.42,43.63z"/>
   <path class="fil6" d="M1481.99 2573.8l-41.79 1.81c-0.09,95.37 32.6,17.16 41.79,-1.81z"/>
   <path class="fil9" d="M1394.19 1280.76l47.52 -18.48 -55.34 -82.16 23.37 49.81c-11.69,34.84 13.24,27.76 -15.55,50.83z"/>
   <path class="fil11" d="M1343.77 1278.03l-76.75 -0.48c0,43.46 -6.47,20.59 30.08,17.84 49.5,-3.75 16.64,5.39 46.67,-17.36z"/>
   <path class="fil7" d="M2606.99 1543.97c-41.22,0 -27.7,-8.94 -29.68,37.64 47.59,0 36.04,11.18 29.68,-37.64z"/>
   <path class="fil7" d="M1612.14 2392.75c-39.1,0 -24.61,-8.19 -31.77,37.61 49.36,0 38.16,12.01 31.77,-37.61z"/>
   <path class="fil7" d="M1264.56 1963.69c-24.27,-39.39 -14.5,-28.85 -61.77,-55.49 35.35,60.99 -47.07,14.75 61.77,55.49z"/>
   <path class="fil4" d="M8078.5 1525.46c-2.78,39.28 -12.43,30.26 25.61,30.26l-25.61 -30.26c2.92,-35.66 10.63,-25.58 -26.38,-27.33 0,35.21 -8.8,26.1 26.38,27.33z"/>
   <path class="fil6" d="M231.37 977.6c-17.42,-90.47 -13.58,-58.98 10.43,-135.7l-10.43 135.7z"/>
   <path class="fil6" d="M813.64 1518.96c2.75,-48.84 16.13,-39.42 -27.79,-39.42 2.15,47.59 -12.17,39.42 27.79,39.42z"/>
   <path class="fil4" d="M5289.23 1801.23c1.52,-48.62 16.1,-41 -23.52,-41 -4.81,49.36 -18.93,41 23.52,41z"/>
   <path class="fil6" d="M7206.4 2028.52c86.98,-48.33 28.54,13.75 72.94,-76.83 -25.61,24.41 -49.82,49.62 -72.94,76.83z"/>
   <path class="fil6" d="M1346.86 1783.32c-14.27,-47.69 15.04,10.37 -13.12,-38.33 -18.39,-31.77 -19.85,-31.02 -35.47,-50.47 23.75,74.37 7.14,48.18 48.59,88.8z"/>
   <path class="fil6" d="M682.29 2545.41c0,-39.16 7.76,-24.86 -39.76,-25.46 0,40.1 -8.03,25.98 39.76,25.46z"/>
   <path class="fil6" d="M1010.48 2103.81c0,-41.63 9.42,-29.6 -35.38,-28.65 0,40.11 -8.88,27.62 35.38,28.65z"/>
   <path class="fil6" d="M2124.13 2003.57c7.22,-3.18 18.14,-15.44 21.55,-9.88l34.8 -22.89c3.24,-2.5 8.74,-8.48 13.01,-12.84 -104.79,20.94 -35.95,-2.26 -69.36,45.61z"/>
   <path class="fil4" d="M3957.65 1379.36l31.83 20.2c0,-38.25 8.19,-28.39 -31.83,-20.2l-39.24 -22.63c0,43.57 -8.8,30.6 39.24,22.63z"/>
   <path class="fil6" d="M1011.62 1448.52c0,-42.6 9.89,-30.91 -35.09,-29.2 0,38.74 -8.45,25.85 35.09,29.2z"/>
   <path class="fil6" d="M1864.04 336.18c-43.74,3.61 -35.92,-9.66 -35.92,27.7 45.75,3.87 35.92,15.53 35.92,-27.7z"/>
   <path class="fil11" d="M1437.82 1151.95l15.93 31.32c12.8,-11.09 25.87,-53.35 28.93,-60.45 -3.75,2.92 -42.8,27.42 -44.86,29.13z"/>
   <path class="fil6" d="M2696.75 1336.68c-39.88,0 -26.27,-7.91 -23.26,39.04 37.87,0 23.94,7.37 23.26,-39.04z"/>
   <path class="fil6" d="M2166.02 1297.4c57.92,-20.11 47.81,-15.13 75.28,-45.18 -84.79,24.3 -50.59,20.37 -75.28,45.18z"/>
   <path class="fil6" d="M1750.34 2251.11c61.07,-28.84 38.87,-20.25 60.59,-48.61 -88.47,32.92 -35.15,6.5 -60.59,48.61z"/>
   <path class="fil6" d="M1288.16 484.12c-40.08,-50.05 -10.94,-28.39 -83.94,-53.52 5.39,4.3 13.01,4.5 15.87,13.24 2.81,8.59 12.35,10.05 16.1,12.37 31.12,19.14 17.05,12.04 51.97,27.91z"/>
   <path class="fil6" d="M1659.49 2078.51l-35.06 0c3.75,7.16 -9.65,105.8 22.49,19.42 2.32,-6.21 8.54,-12.83 12.57,-19.42z"/>
   <path class="fil6" d="M1857.28 1714.6c-44.72,1.69 -37.07,-11.75 -37.07,25.84 45.72,2.18 37.07,14.87 37.07,-25.84z"/>
   <path class="fil6" d="M2477.59 1485.64c-38.04,0 -24.49,-7.82 -26.61,37.36 39.93,0 26.75,8.4 26.61,-37.36z"/>
   <path class="fil7" d="M902.96 1673.86c0,-37.44 8.65,-26.7 -31.22,-26.7 -7.22,44.12 -15.04,32.6 31.22,26.7z"/>
   <path class="fil6" d="M2345.61 2558.99c109.09,-17.84 55.66,-13.89 84.48,-38.5 -8.91,2.35 -21.74,-4.07 -26.61,7.48l-57.87 31.02z"/>
   <path class="fil6" d="M398.04 572.27c-38.56,0 -25.52,-8.11 -26.67,36.46 39.54,0 26.7,8.46 26.67,-36.46z"/>
   <path class="fil6" d="M1368.29 2445.09c1.4,-44.12 13.21,-34.87 -27.76,-34.87 2.06,43.18 -10.51,34.87 27.76,34.87z"/>
   <path class="fil4" d="M5862.33 1451.24c-44.32,-3.9 -35.55,-15.3 -33.34,26.53 41.82,0 33.34,11.6 33.34,-26.53z"/>
   <path class="fil6" d="M1955.6 2105.15c-44.69,-0.4 -36.7,-13.35 -36.7,25.24 44.72,0.46 36.7,13.41 36.7,-25.24z"/>
   <path class="fil6" d="M2169.8 1301.47c-43,0.63 -34.84,-11.72 -34.84,26.32 43.06,-0.51 34.84,11.81 34.84,-26.32z"/>
   <path class="fil6" d="M981 1885.48c-20.66,-26.12 -5.62,-21.08 -60.85,-48.3 26.53,38.93 -25.72,15.56 60.85,48.3z"/>
   <path class="fil6" d="M2078.21 1879.47c55.52,-20.4 42.09,-15.53 67.35,-45.7 -67.43,23.21 -43.4,15.36 -67.35,45.7z"/>
   <path class="fil7" d="M2771.09 2206.71l47.1 -76.92c-51.4,43.32 -20.4,-51.28 -47.1,76.92z"/>
   <path class="fil6" d="M349.09 670.96c-36.73,0 -24.07,-7.54 -24.13,35.61 37.25,0 24.7,7.67 24.13,-35.61z"/>
   <path class="fil4" d="M7717.77 1579.95c10.2,-81.36 9.71,-61.13 -19.14,-84.45l19.14 84.45z"/>
   <path class="fil4" d="M5997.32 1377.99c0,-36.33 7.59,-23.95 -34.61,-24.67 0,37.87 -8.05,25.87 34.61,24.67z"/>
   <path class="fil6" d="M813.67 2610.33c0,-36.67 7.85,-24.69 -33.66,-25.5 0,37.96 -8.31,26.33 33.66,25.5z"/>
   <path class="fil4" d="M7134.3 1621.18l21.74 37.38c2.52,-44.37 15.44,-36.78 -21.74,-37.38 -0.61,-36.01 7.04,-24.18 -34.5,-22.61l34.5 22.61z"/>
   <path class="fil6" d="M342.07 1271.62l-40.22 -79.21c19.48,133.44 -8.86,34.77 40.22,79.21z"/>
   <path class="fil4" d="M6091.52 1482.92c0.22,-42.17 12.46,-34.63 -23.9,-34.63 -1.2,42.43 -13.26,34.63 23.9,34.63z"/>
   <path class="fil6" d="M1584.21 790.93c-37.27,0 -25.5,-7.99 -24.47,33.95 36.21,0 24.18,7.65 24.47,-33.95z"/>
   <path class="fil4" d="M7608.65 1500.86l-58.99 -4.62c0,32.26 -5.67,23.55 28.22,18.88 2.66,-0.37 12.46,-3.09 15.15,-3.72 3.24,-0.75 11.29,-5.99 15.62,-10.54z"/>
   <path class="fil6" d="M2304.82 465.24c-34.07,-90.99 -9.34,-34.35 -46.01,-61.68 20.6,46.61 21.2,40.76 46.01,61.68z"/>
   <path class="fil6" d="M1683.19 2296.26c-37.82,0.86 -27.88,-8.68 -28.68,29.71 38.65,0 28.68,9.51 28.68,-29.71z"/>
   <path class="fil7" d="M730.25 1035.73l-24.18 -50.28c-8.8,59.65 -26.27,50.28 24.18,50.28z"/>
   <path class="fil6" d="M200.86 2084.53c-20.25,-59.36 -16.18,-43.69 -43.97,-68.16 19.08,54.95 14.67,42.66 43.97,68.16z"/>
   <path class="fil7" d="M829.62 1587.34l-26.38 -46.38c-10.03,56.81 -25.3,46.38 26.38,46.38z"/>
   <path class="fil6" d="M2825.23 2147.72c37.85,-31.08 21,37.13 43.29,-74.39l-43.29 74.39z"/>
   <path class="fil4" d="M7026.72 2027.6c0,-36.26 7.97,-25.18 -32.02,-24.69 0,35.95 -7.88,24.78 32.02,24.69z"/>
   <path class="fil6" d="M2552.76 1368.27c-35.61,0 -23.89,-7.73 -25.78,32.49 36.1,0 24.49,7.88 25.78,-32.49z"/>
   <path class="fil7" d="M1436.47 1747.54c8.71,-61.45 27.56,-53.02 -21.17,-53.02l21.17 53.02z"/>
   <path class="fil11" d="M1294.92 1036.19c2.01,-38.73 11.29,-29.57 -27.21,-28.08 0,37.1 -9.43,28.08 27.21,28.08z"/>
   <path class="fil9" d="M1292.34 623.4l32.63 22.83c0,-35.78 7.6,-24.55 -32.63,-22.83l-29.45 -25.72c0,37.1 -8.88,27.5 29.45,25.72z"/>
   <polygon class="fil6" points="4394.45,1783.93 4420.43,1764.56 4358.75,1745.08 "/>
   <path class="fil7" d="M1136.33 41.79l-64.34 29c110.95,1 39.21,4.15 64.34,-29z"/>
   <path class="fil7" d="M1131.69 406.71c-22.55,-37.39 42.48,-29.31 -58.04,-34.29l58.04 34.29z"/>
   <path class="fil6" d="M1537.74 2491.93c-35.18,0 -24.55,-8.14 -26.96,29.51 36.82,0 26.73,8.76 26.96,-29.51z"/>
   <path class="fil4" d="M4470.02 1566.95c-35.52,0 -25.01,-8.05 -25.01,30.36 34.78,0 24.06,7.8 25.01,-30.36z"/>
   <path class="fil7" d="M2483.12 1007.83l-27.1 45.23c48.87,0 33.6,9.94 27.1,-45.23z"/>
   <path class="fil4" d="M4085.25 1785.16c-0.54,-37.3 9.22,-28.56 -26.93,-28.56 1.81,36.89 -8.31,28.56 26.93,28.56z"/>
   <path class="fil6" d="M1106.74 1520.28c-24.93,-30.25 18.3,-17.53 -68.27,-45.26 4.38,4.64 9.97,11.05 13.38,13.72 3.52,2.81 11.94,9.71 15.55,12.43 67.7,50.62 -82.33,-29.51 39.34,19.11z"/>
   <path class="fil6" d="M932.58 2055.77c-28.01,-34.27 28.8,-14.76 -66.97,-43.44 4.47,4.45 10.74,5.19 13.52,13.21l53.45 30.23z"/>
   <path class="fil6" d="M1886.24 475.52l112.85 -48.16c-22.12,5.73 -38.45,5.56 -61.37,15.93 -28.24,12.78 -38.21,22.63 -51.48,32.23z"/>
   <polygon class="fil4" points="6092.86,1622.12 6115.41,1585.91 6094.35,1588.15 6071.81,1626.08 "/>
   <path class="fil6" d="M2741.12 1206.07c-43.23,0 -25.58,-7.42 -19.68,49.53l19.68 -49.53z"/>
   <path class="fil6" d="M1601.91 721.64c-43.97,0 -27.79,-8.08 -22.2,45.86l22.2 -45.86z"/>
   <path class="fil11" d="M1485.17 921.51c6.19,-55.23 23.24,-47.84 -19.48,-47.84l19.48 47.84z"/>
   <path class="fil6" d="M125.78 1094.17c-43.63,0 -27.88,-8.13 -22.55,44.81l22.55 -44.81z"/>
   <path class="fil6" d="M323.93 1474.47c4.56,-51.22 19.17,-42.4 -24.98,-42.4l24.98 42.4z"/>
   <path class="fil6" d="M2920.17 1957.1l-22.8 43.17c42.37,0 27.21,8.03 22.8,-43.17z"/>
   <path class="fil6" d="M2605.99 1254.8l-23.66 42.94c42.22,0 27.13,8.08 23.66,-42.94z"/>
   <path class="fil6" d="M281.65 1126.34l-31.86 -48.61c6.56,74.83 -6.21,34.63 31.86,48.61z"/>
   <path class="fil11" d="M907.49 1086.55l-49.56 -59.82c23.95,66.78 10.4,37.85 49.56,59.82z"/>
   <path class="fil6" d="M1914.72 1694.46l-44.23 22.09c51.91,3.89 44.23,19.56 44.23,-22.09z"/>
   <path class="fil6" d="M2499.99 944.72c-42.34,0 -27.93,-8.46 -24.81,41.31l24.81 -41.31z"/>
   <path class="fil6" d="M1929.67 307.45l-48.9 32.77c87.03,-7.97 26.82,2.89 48.9,-32.77z"/>
   <path class="fil6" d="M2892.87 1257.95c5.19,-48.27 18.76,-39.79 -23.46,-39.79l23.46 39.79z"/>
   <path class="fil6" d="M103.29 1892.59l-22.75 -40.68c-4.04,48.61 -18.22,40.68 22.75,40.68z"/>
   <path class="fil6" d="M1682.64 2003.68c-40.45,0 -25.84,-7.7 -22.34,41.49l22.34 -41.49z"/>
   <path class="fil4" d="M7556.57 1740.01l-39.11 22.4c47.36,5.73 39.11,19.05 39.11,-22.4z"/>
   <path class="fil6" d="M372.58 617.73l-23.27 41.14c40.37,0 25.85,7.76 23.27,-41.14z"/>
   <path class="fil6" d="M5685.06 1426.69c-23.12,-62.17 -0.54,-63.4 -27.85,0l27.85 0z"/>
   <path class="fil4" d="M6117.18 1573.25c69.07,-29.65 36.27,-14.52 57.04,-50.94l-57.04 50.94z"/>
   <path class="fil6" d="M1835.34 504.31c-47.02,-2.75 -38.59,-16.07 -38.59,24.9l38.59 -24.9z"/>
   <path class="fil11" d="M1234.62 572.18c0,-40.34 7.79,-26.18 -40.39,-22.6l40.39 22.6z"/>
   <path class="fil6" d="M1414.87 1694.77l-22.63 -40.62c-2.72,48.24 -17.05,40.62 22.63,40.62z"/>
   <path class="fil6" d="M1714.81 137.05c0,-41.48 9.09,-29.68 -35.78,-25.61l35.78 25.61z"/>
   <path class="fil6" d="M1929.84 1957.59c-47.58,-1.61 -40.13,-15.9 -40.13,22.89l40.13 -22.89z"/>
   <path class="fil9" d="M1101.49 528.63l-83.88 -25.89c5.07,4.21 12.01,4.5 15.67,12.09 3.84,7.99 13.55,7.67 18.85,8.85 78.44,17.13 -40.99,5.24 49.36,4.95z"/>
   <path class="fil11" d="M1364.88 1137.83c1.89,-44.2 13.81,-35.24 -26.64,-35.24l26.64 35.24z"/>
   <path class="fil6" d="M880.36 111.78c-45.24,-2.49 -37.21,-15.38 -37.21,23.81l37.21 -23.81z"/>
   <path class="fil6" d="M296.14 1434.25c-0.6,-45.78 13.15,-38.24 -24.69,-38.24l24.69 38.24z"/>
   <path class="fil6" d="M1978.63 1935.3l-30.36 26.9c40.33,4.3 30.36,13.47 30.36,-26.9z"/>
   <path class="fil4" d="M5641.46 1450.01l-35.67 22.37c43.46,3.44 35.67,15.67 35.67,-22.37z"/>
   <path class="fil4" d="M1951.22 1713.48c-41.2,-2.98 -32.12,-13.38 -32.12,25.84l32.12 -25.84z"/>
   <path class="fil6" d="M323.79 718.48c-37.87,0 -26.07,-8.13 -24.47,34.3l24.47 -34.3z"/>
   <path class="fil6" d="M2888.74 2019.55l-23.31 35.61c37.24,0 24.78,7.65 23.31,-35.61z"/>
   <path class="fil6" d="M5739 1354.49c-43.11,-3.32 -35.58,-15.61 -35.58,21.75l35.58 -21.75z"/>
   <path class="fil9" d="M861.77 502.79l-31.92 27.74c40.91,0 31.92,10.91 31.92,-27.74z"/>
   <path class="fil11" d="M1175.32 549.83c0,-39.04 9.05,-29.39 -31.26,-24.2l31.26 24.2z"/>
   <path class="fil4" d="M3699.99 1353.32l-33.8 22.43c41.8,3.98 33.8,15.3 33.8,-22.43z"/>
   <path class="fil4" d="M4331.71 1517.87c0,-36.67 7.25,-24.29 -35.7,-20.88l35.7 20.88z"/>
   <path class="fil4" d="M4588.19 1743.36l39.88 15.61 -39.88 -15.61 -30.19 -20.08c-3.27,38.64 -10.32,28.33 30.19,20.08z"/>
   <path class="fil6" d="M2045.04 2058.57l78.46 -51.65c-6.56,2.44 -16.87,-1.37 -19.65,7.39 -2.63,8.42 -14.92,6.13 -18.28,8.48 -28.79,20.17 -20.74,14.58 -40.53,35.78z"/>
   <path class="fil6" d="M1966.37 2105.04c59.42,-19.83 43.55,-15.36 68.41,-43.95l-68.41 43.95z"/>
   <path class="fil6" d="M2025.18 1908.8l-30.56 25.41c39.59,3.15 30.56,12.89 30.56,-25.41z"/>
   <path class="fil11" d="M857.76 1012.01l-23.9 -33.89c-1,41.65 -12.8,33.89 23.9,33.89z"/>
   <path class="fil4" d="M4347.75 1833.83c-39.79,-1.43 -31.25,-11.92 -31.25,25.44l31.25 -25.44z"/>
   <path class="fil4" d="M3959.66 1688.27c-39.79,-1.46 -31.23,-11.92 -31.23,25.44l31.23 -25.44z"/>
   <path class="fil4" d="M6945.85 1957.62c1.38,-39.74 11.86,-31.2 -25.41,-31.2l25.41 31.2z"/>
   <path class="fil6" d="M2044.38 1251.31l-31.77 24.78c39.96,1.08 31.77,11.91 31.77,-24.78z"/>
   <path class="fil6" d="M1846.14 213.37l30.65 21.25c0,-37.35 8.31,-27.9 -30.65,-21.25l-40.6 -33.04 40.6 33.04z"/>
   <path class="fil6" d="M2332.98 533.16c2.6,-41.22 14.41,-34.03 -21.12,-34.03l21.12 34.03z"/>
   <path class="fil4" d="M4302.95 1738.46l-27.74 26.21c37.3,3.33 27.74,11.69 27.74,-26.21z"/>
   <path class="fil6" d="M1876.73 476.87c-38.59,1.06 -30.02,-9.43 -30.02,27.13l30.02 -27.13z"/>
   <path class="fil6" d="M2820.45 1137.6c-0.98,-41.62 6.7,-30.05 -24.35,-16.18 -78.44,35 31.68,-96.06 -22.52,21.91l46.87 -5.73z"/>
   <path class="fil4" d="M6219.08 1497.56l-33 22.03c40.34,1.84 33,13.27 33,-22.03z"/>
   <path class="fil6" d="M1008.85 2684.36l-32.35 -22.64c0,35.33 -7.48,24.18 32.35,22.64z"/>
   <path class="fil6" d="M1678.23 1984.95l48.62 -88.5c-4.1,5.3 -11,5.96 -12.67,15.56 -1.63,9.6 -9.62,12.32 -11.68,16.24 -22.64,43.35 -8.08,8.77 -24.27,56.7z"/>
   <path class="fil6" d="M4165.03 1501.77c-39.01,-1.31 -31.45,-12.14 -31.45,22.84l31.45 -22.84z"/>
   <path class="fil6" d="M6122.2 1783.84l-22.81 -31.37c-1.17,38.88 -11.97,31.37 22.81,31.37z"/>
   <path class="fil6" d="M881.76 2636.89l-30.96 -22.15c0,34.84 -7.54,24.35 30.96,22.15z"/>
   <path class="fil4" d="M5948.62 1566.95c-37.53,0 -29.36,-10.09 -29.36,25.21l29.36 -25.21z"/>
   <path class="fil11" d="M1117.33 1259.61l-85.34 -50.02c5.45,4.42 13.07,4.82 16.05,13.61 2.86,8.57 12.49,10.2 16.32,12.35 34.7,19.34 15.3,10.86 52.97,24.06z"/>
   <path class="fil4" d="M6187.94 1863.57l-28.79 -25.39c0,35.04 -8.19,25.16 28.79,25.39z"/>
   <path class="fil4" d="M5924.3 1472.01l27.9 21.91c0.55,-34.95 8.45,-26.04 -27.9,-21.91l-37.27 -19 37.27 19z"/>
   <path class="fil4" d="M7012.63 1494.75c-36.67,-0.74 -28.79,-10.51 -28.79,23.87l28.79 -23.87z"/>
   <path class="fil6" d="M4371.87 1546.89c-4.07,36.47 -13.29,28.79 21.03,28.79l-21.03 -28.79 -19.82 -28.73 19.82 28.73z"/>
   <path class="fil6" d="M7357.89 1570.3c-34.98,0 -26.18,-8.51 -24.66,27.13l24.66 -27.13z"/>
   <path class="fil4" d="M7110.4 1738.69c35.53,1 27.39,9.8 25.62,-25.24l20.85 -35.81 -20.85 35.81 -25.62 25.24z"/>
   <path class="fil4" d="M6241.6 1738.12l35.81 20.85 -35.81 -20.85 -25.24 -25.61c-0.97,35.52 -9.79,27.38 25.24,25.61z"/>
   <path class="fil6" d="M934.93 2658.63c0,-34.03 7.82,-24.29 -28.59,-23.83l28.59 23.83z"/>
   <path class="fil4" d="M4153.95 1862.22c0,-34.81 8.51,-25.52 -26.93,-26.5l26.93 26.5z"/>
   <path class="fil9" d="M1195.11 1278.81l-28.42 -21.95c0,33.49 -7.5,24.04 28.42,21.95z"/>
   <path class="fil4" d="M5024.47 1741.9l-24.09 -24.06c-1.29,33.4 -9.31,25.38 24.09,24.06z"/>
   <polygon class="fil6" points="7186.38,1864.63 7164.26,1891.07 "/>
   <polygon class="fil4" points="4210.41,1760.46 4178.41,1736.77 "/>
   <polygon class="fil4" points="5325.1,1352.75 5283.16,1373.98 "/>
   <polygon class="fil4" points="1992.47,1373.52 1922.34,1401.88 "/>
   <polygon class="fil6" points="4926.26,1863.51 4886.82,1803.49 "/>
   <polygon class="fil4" points="4521.53,1860.79 4467.7,1808.45 "/>
   <polygon class="fil6" points="7196.81,1501.72 7153.12,1500.97 "/>
   <polygon class="fil4" points="7476.81,1617.31 7451.08,1642.29 "/>
   <polygon class="fil4" points="6748.5,1645.04 6724.98,1615.1 "/>
   <polygon class="fil6" points="2601.55,1238.67 2631.03,1188.68 "/>
   <polygon class="fil6" points="1654.51,117.34 1610.71,84.77 "/>
   <polygon class="fil6" points="2364.58,645.8 2338.31,587.08 "/>
   <polygon class="fil9" points="1466.9,858.23 1438.33,811.59 "/>
   <polygon class="fil6" points="72,1224.06 103.29,1176.19 "/>
   <polygon class="fil6" points="2524.6,862.55 2550.84,806.89 "/>
   <polygon class="fil6" points="2338.68,903.58 2364.17,842.73 "/>
   <polygon class="fil6" points="2627.56,1112.02 2648.19,1050.94 "/>
   <polygon class="fil6" points="2936.59,1829.22 2962.03,1776.56 "/>
   <polygon class="fil6" points="2647.85,899.11 2624.87,843.36 "/>
   <polygon class="fil6" points="225.79,1277.6 197.65,1233.46 "/>
   <polygon class="fil9" points="802.78,620.25 830.48,547.6 "/>
   <polygon class="fil6" points="2913.78,1934.27 2942,1881.5 "/>
   <polygon class="fil6" points="1369.81,1881.24 1344.34,1823.17 "/>
   <polygon class="fil6" points="248.36,1039.45 227.1,1003.82 "/>
   <polygon class="fil6" points="2335.15,936.92 2314.9,978.43 "/>
   <polygon class="fil6" points="1729.48,1326.31 1675.11,1352.06 "/>
   <polygon class="fil4" points="5450.23,1735.42 5414.68,1712.51 "/>
   <polygon class="fil6" points="948.66,84.71 897.38,114.07 "/>
   <polygon class="fil6" points="3910.87,1714.63 3871.02,1732.99 "/>
   <polygon class="fil6" points="2282.13,2584.92 2253.11,2609.1 "/>
   <polygon class="fil6" points="2574.16,1318.17 2552.79,1358.62 "/>
   <polygon class="fil6" points="2211.51,2612.19 2180.28,2633.96 "/>
   <polygon class="fil6" points="269.93,1387.27 245.87,1354.84 "/>
   <polygon class="fil6" points="7984.54,1672.77 7966.95,1631.29 "/>
   <polygon class="fil6" points="854.63,2008.95 798.91,1959.16 "/>
   <polygon class="fil9" points="829.4,942.77 801.66,897.19 "/>
   <polygon class="fil6" points="1098.6,2712.4 1033.88,2688.88 "/>
   <polygon class="fil6" points="2019.2,2683.24 1948.47,2714.01 "/>
   <polygon class="fil6" points="1218.83,2737.58 1168.27,2710.22 "/>
   <polygon class="fil6" points="1890.8,2714.21 1842.04,2733.83 "/>
   <polygon class="fil4" points="4034.17,1448.32 4006.15,1424.02 "/>
   <polygon class="fil6" points="2157.28,2631.07 2119.87,2664.16 "/>
  </g>
 </g>
</svg>
